<svg xmlns="http://www.w3.org/2000/svg" width="64" height="64" fill="none" id="name-card"><path fill="#959AB4" d="M29.334 14a2.667 2.667 0 1 1 5.333 0v5.333a2.667 2.667 0 1 1-5.334 0V14Z"></path><path fill="#959AB4" fill-rule="evenodd" d="M28 14a4 4 0 0 1 8 0v5.333a4 4 0 1 1-8 0V14Zm4-1.333c-.736 0-1.333.597-1.333 1.333v5.333a1.333 1.333 0 1 0 2.666 0V14c0-.736-.597-1.333-1.333-1.333Z" clip-rule="evenodd"></path><path fill="#D0D2E0" fill-rule="evenodd" d="M28 18H12a5.333 5.333 0 0 0-5.333 5.333V46A5.333 5.333 0 0 0 12 51.333h40A5.333 5.333 0 0 0 57.333 46V23.333A5.333 5.333 0 0 0 52 18H36v1.333a4 4 0 1 1-8 0V18Z" clip-rule="evenodd"></path><path fill="#2B3151" fill-rule="evenodd" d="M37.334 26c0-.736.596-1.333 1.333-1.333H50a1.333 1.333 0 0 1 0 2.667H38.667A1.333 1.333 0 0 1 37.333 26zm0 17.867c0-.737.596-1.334 1.333-1.334H50a1.333 1.333 0 0 1 0 2.667H38.667a1.333 1.333 0 0 1-1.334-1.334zm0-8.933c0-.736.596-1.333 1.333-1.333H50a1.333 1.333 0 0 1 0 2.666H38.667a1.333 1.333 0 0 1-1.334-1.333zm-14.667-8.267a3.333 3.333 0 1 0 0 6.666 3.333 3.333 0 0 0 0-6.666zm-6 3.333a6 6 0 1 1 12 0 6 6 0 0 1-12 0z" clip-rule="evenodd"></path><path fill="#2B3151" fill-rule="evenodd" d="M22.667 37.334c-4.153 0-7.334 3.083-7.334 6.666a1.333 1.333 0 1 1-2.666 0c0-5.253 4.58-9.333 10-9.333s10 4.08 10 9.333A1.333 1.333 0 1 1 30 44c0-3.583-3.18-6.666-7.333-6.666Z" clip-rule="evenodd"></path></svg>